<mxfile host="app.diagrams.net" modified="2023-09-07T08:26:16.753Z" agent="Mozilla/5.0 (Macintosh; Intel Mac OS X 10_15_7) AppleWebKit/537.36 (KHTML, like Gecko) Chrome/116.0.0.0 Safari/537.36" etag="DddcTL4hmjmGOPYYDbIk" version="21.5.0" type="github">
  <diagram name="Page-1" id="VC3GMR-czodQoxIBaL8C">
    <mxGraphModel dx="794" dy="627" grid="1" gridSize="10" guides="1" tooltips="1" connect="1" arrows="1" fold="1" page="1" pageScale="1" pageWidth="850" pageHeight="1100" math="0" shadow="0">
      <root>
        <mxCell id="0" />
        <mxCell id="1" parent="0" />
        <mxCell id="A7dC1SOOh8DM9bIIvPGL-12" style="edgeStyle=orthogonalEdgeStyle;rounded=0;orthogonalLoop=1;jettySize=auto;html=1;" edge="1" parent="1" source="A7dC1SOOh8DM9bIIvPGL-1" target="A7dC1SOOh8DM9bIIvPGL-4">
          <mxGeometry relative="1" as="geometry" />
        </mxCell>
        <mxCell id="A7dC1SOOh8DM9bIIvPGL-13" style="edgeStyle=orthogonalEdgeStyle;rounded=0;orthogonalLoop=1;jettySize=auto;html=1;" edge="1" parent="1" source="A7dC1SOOh8DM9bIIvPGL-1" target="A7dC1SOOh8DM9bIIvPGL-5">
          <mxGeometry relative="1" as="geometry" />
        </mxCell>
        <mxCell id="A7dC1SOOh8DM9bIIvPGL-1" value="Proxy" style="swimlane;whiteSpace=wrap;html=1;" vertex="1" parent="1">
          <mxGeometry x="40" y="80" width="140" height="180" as="geometry" />
        </mxCell>
        <mxCell id="A7dC1SOOh8DM9bIIvPGL-2" value="reactive()" style="rounded=0;whiteSpace=wrap;html=1;" vertex="1" parent="A7dC1SOOh8DM9bIIvPGL-1">
          <mxGeometry x="10" y="40" width="120" height="60" as="geometry" />
        </mxCell>
        <mxCell id="A7dC1SOOh8DM9bIIvPGL-3" value="ref()" style="rounded=0;whiteSpace=wrap;html=1;" vertex="1" parent="A7dC1SOOh8DM9bIIvPGL-1">
          <mxGeometry x="10" y="110" width="120" height="60" as="geometry" />
        </mxCell>
        <mxCell id="A7dC1SOOh8DM9bIIvPGL-10" style="edgeStyle=orthogonalEdgeStyle;rounded=0;orthogonalLoop=1;jettySize=auto;html=1;" edge="1" parent="1" source="A7dC1SOOh8DM9bIIvPGL-4" target="A7dC1SOOh8DM9bIIvPGL-6">
          <mxGeometry relative="1" as="geometry" />
        </mxCell>
        <mxCell id="A7dC1SOOh8DM9bIIvPGL-4" value="setter" style="rounded=0;whiteSpace=wrap;html=1;" vertex="1" parent="1">
          <mxGeometry x="240" y="120" width="120" height="60" as="geometry" />
        </mxCell>
        <mxCell id="A7dC1SOOh8DM9bIIvPGL-11" style="edgeStyle=orthogonalEdgeStyle;rounded=0;orthogonalLoop=1;jettySize=auto;html=1;" edge="1" parent="1" source="A7dC1SOOh8DM9bIIvPGL-5" target="A7dC1SOOh8DM9bIIvPGL-7">
          <mxGeometry relative="1" as="geometry" />
        </mxCell>
        <mxCell id="A7dC1SOOh8DM9bIIvPGL-5" value="getter" style="rounded=0;whiteSpace=wrap;html=1;" vertex="1" parent="1">
          <mxGeometry x="240" y="200" width="120" height="60" as="geometry" />
        </mxCell>
        <mxCell id="A7dC1SOOh8DM9bIIvPGL-9" style="edgeStyle=orthogonalEdgeStyle;rounded=0;orthogonalLoop=1;jettySize=auto;html=1;" edge="1" parent="1" source="A7dC1SOOh8DM9bIIvPGL-6" target="A7dC1SOOh8DM9bIIvPGL-8">
          <mxGeometry relative="1" as="geometry" />
        </mxCell>
        <mxCell id="A7dC1SOOh8DM9bIIvPGL-6" value="Trigger" style="rounded=0;whiteSpace=wrap;html=1;" vertex="1" parent="1">
          <mxGeometry x="440" y="120" width="120" height="60" as="geometry" />
        </mxCell>
        <mxCell id="A7dC1SOOh8DM9bIIvPGL-29" style="edgeStyle=orthogonalEdgeStyle;rounded=0;orthogonalLoop=1;jettySize=auto;html=1;entryX=0.25;entryY=0;entryDx=0;entryDy=0;" edge="1" parent="1" source="A7dC1SOOh8DM9bIIvPGL-7" target="A7dC1SOOh8DM9bIIvPGL-14">
          <mxGeometry relative="1" as="geometry">
            <Array as="points">
              <mxPoint x="633" y="230" />
            </Array>
          </mxGeometry>
        </mxCell>
        <mxCell id="A7dC1SOOh8DM9bIIvPGL-31" value="&lt;b&gt;写入当前依赖&lt;/b&gt;" style="edgeLabel;html=1;align=center;verticalAlign=middle;resizable=0;points=[];" vertex="1" connectable="0" parent="A7dC1SOOh8DM9bIIvPGL-29">
          <mxGeometry x="0.5429" relative="1" as="geometry">
            <mxPoint as="offset" />
          </mxGeometry>
        </mxCell>
        <mxCell id="A7dC1SOOh8DM9bIIvPGL-7" value="Track" style="rounded=0;whiteSpace=wrap;html=1;" vertex="1" parent="1">
          <mxGeometry x="440" y="200" width="120" height="60" as="geometry" />
        </mxCell>
        <mxCell id="A7dC1SOOh8DM9bIIvPGL-44" style="edgeStyle=orthogonalEdgeStyle;rounded=0;orthogonalLoop=1;jettySize=auto;html=1;entryX=0.5;entryY=1;entryDx=0;entryDy=0;entryPerimeter=0;" edge="1" parent="1" source="A7dC1SOOh8DM9bIIvPGL-8" target="A7dC1SOOh8DM9bIIvPGL-41">
          <mxGeometry relative="1" as="geometry">
            <Array as="points">
              <mxPoint x="870" y="150" />
              <mxPoint x="870" y="660" />
              <mxPoint x="330" y="660" />
            </Array>
          </mxGeometry>
        </mxCell>
        <mxCell id="A7dC1SOOh8DM9bIIvPGL-46" value="&lt;b&gt;更新 effect stack、activeEffect&lt;/b&gt;" style="edgeLabel;html=1;align=center;verticalAlign=middle;resizable=0;points=[];" vertex="1" connectable="0" parent="A7dC1SOOh8DM9bIIvPGL-44">
          <mxGeometry x="0.7025" y="2" relative="1" as="geometry">
            <mxPoint x="-26" as="offset" />
          </mxGeometry>
        </mxCell>
        <mxCell id="A7dC1SOOh8DM9bIIvPGL-8" value="effect scheduler&lt;br&gt;调度器 或 立即执行" style="rounded=0;whiteSpace=wrap;html=1;" vertex="1" parent="1">
          <mxGeometry x="640" y="120" width="120" height="60" as="geometry" />
        </mxCell>
        <mxCell id="A7dC1SOOh8DM9bIIvPGL-28" style="edgeStyle=orthogonalEdgeStyle;rounded=0;orthogonalLoop=1;jettySize=auto;html=1;" edge="1" parent="1" source="A7dC1SOOh8DM9bIIvPGL-14" target="A7dC1SOOh8DM9bIIvPGL-6">
          <mxGeometry relative="1" as="geometry">
            <Array as="points">
              <mxPoint x="705" y="190" />
              <mxPoint x="500" y="190" />
            </Array>
          </mxGeometry>
        </mxCell>
        <mxCell id="A7dC1SOOh8DM9bIIvPGL-30" value="&lt;b&gt;获取当前依赖&lt;/b&gt;" style="edgeLabel;html=1;align=center;verticalAlign=middle;resizable=0;points=[];" vertex="1" connectable="0" parent="A7dC1SOOh8DM9bIIvPGL-28">
          <mxGeometry x="-0.6656" y="2" relative="1" as="geometry">
            <mxPoint as="offset" />
          </mxGeometry>
        </mxCell>
        <mxCell id="A7dC1SOOh8DM9bIIvPGL-14" value="" style="rounded=0;whiteSpace=wrap;html=1;fillColor=#fff2cc;strokeColor=#d6b656;" vertex="1" parent="1">
          <mxGeometry x="560" y="280" width="290" height="220" as="geometry" />
        </mxCell>
        <mxCell id="A7dC1SOOh8DM9bIIvPGL-16" value="TargetMap响应数据" style="swimlane;fontStyle=0;childLayout=stackLayout;horizontal=1;startSize=30;horizontalStack=0;resizeParent=1;resizeParentMax=0;resizeLast=0;collapsible=1;marginBottom=0;whiteSpace=wrap;html=1;" vertex="1" parent="1">
          <mxGeometry x="570" y="290" width="140" height="120" as="geometry" />
        </mxCell>
        <mxCell id="A7dC1SOOh8DM9bIIvPGL-17" value="target" style="text;strokeColor=none;fillColor=default;align=left;verticalAlign=middle;spacingLeft=4;spacingRight=4;overflow=hidden;points=[[0,0.5],[1,0.5]];portConstraint=eastwest;rotatable=0;whiteSpace=wrap;html=1;" vertex="1" parent="A7dC1SOOh8DM9bIIvPGL-16">
          <mxGeometry y="30" width="140" height="30" as="geometry" />
        </mxCell>
        <mxCell id="A7dC1SOOh8DM9bIIvPGL-18" value="&amp;nbsp;" style="text;strokeColor=none;fillColor=default;align=left;verticalAlign=middle;spacingLeft=4;spacingRight=4;overflow=hidden;points=[[0,0.5],[1,0.5]];portConstraint=eastwest;rotatable=0;whiteSpace=wrap;html=1;" vertex="1" parent="A7dC1SOOh8DM9bIIvPGL-16">
          <mxGeometry y="60" width="140" height="30" as="geometry" />
        </mxCell>
        <mxCell id="A7dC1SOOh8DM9bIIvPGL-19" value="&amp;nbsp;" style="text;strokeColor=none;fillColor=default;align=left;verticalAlign=middle;spacingLeft=4;spacingRight=4;overflow=hidden;points=[[0,0.5],[1,0.5]];portConstraint=eastwest;rotatable=0;whiteSpace=wrap;html=1;" vertex="1" parent="A7dC1SOOh8DM9bIIvPGL-16">
          <mxGeometry y="90" width="140" height="30" as="geometry" />
        </mxCell>
        <mxCell id="A7dC1SOOh8DM9bIIvPGL-20" value="DepsMap 依赖" style="swimlane;fontStyle=0;childLayout=stackLayout;horizontal=1;startSize=30;horizontalStack=0;resizeParent=1;resizeParentMax=0;resizeLast=0;collapsible=1;marginBottom=0;whiteSpace=wrap;html=1;" vertex="1" parent="1">
          <mxGeometry x="620" y="330" width="140" height="120" as="geometry" />
        </mxCell>
        <mxCell id="A7dC1SOOh8DM9bIIvPGL-21" value="propName" style="text;strokeColor=none;fillColor=default;align=left;verticalAlign=middle;spacingLeft=4;spacingRight=4;overflow=hidden;points=[[0,0.5],[1,0.5]];portConstraint=eastwest;rotatable=0;whiteSpace=wrap;html=1;" vertex="1" parent="A7dC1SOOh8DM9bIIvPGL-20">
          <mxGeometry y="30" width="140" height="30" as="geometry" />
        </mxCell>
        <mxCell id="A7dC1SOOh8DM9bIIvPGL-22" value="&amp;nbsp;" style="text;strokeColor=none;fillColor=default;align=left;verticalAlign=middle;spacingLeft=4;spacingRight=4;overflow=hidden;points=[[0,0.5],[1,0.5]];portConstraint=eastwest;rotatable=0;whiteSpace=wrap;html=1;" vertex="1" parent="A7dC1SOOh8DM9bIIvPGL-20">
          <mxGeometry y="60" width="140" height="30" as="geometry" />
        </mxCell>
        <mxCell id="A7dC1SOOh8DM9bIIvPGL-23" value="&amp;nbsp;" style="text;strokeColor=none;fillColor=default;align=left;verticalAlign=middle;spacingLeft=4;spacingRight=4;overflow=hidden;points=[[0,0.5],[1,0.5]];portConstraint=eastwest;rotatable=0;whiteSpace=wrap;html=1;" vertex="1" parent="A7dC1SOOh8DM9bIIvPGL-20">
          <mxGeometry y="90" width="140" height="30" as="geometry" />
        </mxCell>
        <mxCell id="A7dC1SOOh8DM9bIIvPGL-24" value="Deps 副作用函数" style="swimlane;fontStyle=0;childLayout=stackLayout;horizontal=1;startSize=30;horizontalStack=0;resizeParent=1;resizeParentMax=0;resizeLast=0;collapsible=1;marginBottom=0;whiteSpace=wrap;html=1;fillColor=default;" vertex="1" parent="1">
          <mxGeometry x="700" y="370" width="140" height="120" as="geometry" />
        </mxCell>
        <mxCell id="A7dC1SOOh8DM9bIIvPGL-25" value="effect1" style="text;align=left;verticalAlign=middle;spacingLeft=4;spacingRight=4;overflow=hidden;points=[[0,0.5],[1,0.5]];portConstraint=eastwest;rotatable=0;whiteSpace=wrap;html=1;fillColor=default;" vertex="1" parent="A7dC1SOOh8DM9bIIvPGL-24">
          <mxGeometry y="30" width="140" height="30" as="geometry" />
        </mxCell>
        <mxCell id="A7dC1SOOh8DM9bIIvPGL-26" value="effect2" style="text;align=left;verticalAlign=middle;spacingLeft=4;spacingRight=4;overflow=hidden;points=[[0,0.5],[1,0.5]];portConstraint=eastwest;rotatable=0;whiteSpace=wrap;html=1;fillColor=default;" vertex="1" parent="A7dC1SOOh8DM9bIIvPGL-24">
          <mxGeometry y="60" width="140" height="30" as="geometry" />
        </mxCell>
        <mxCell id="A7dC1SOOh8DM9bIIvPGL-27" value="&amp;nbsp;" style="text;strokeColor=none;fillColor=default;align=left;verticalAlign=middle;spacingLeft=4;spacingRight=4;overflow=hidden;points=[[0,0.5],[1,0.5]];portConstraint=eastwest;rotatable=0;whiteSpace=wrap;html=1;" vertex="1" parent="A7dC1SOOh8DM9bIIvPGL-24">
          <mxGeometry y="90" width="140" height="30" as="geometry" />
        </mxCell>
        <mxCell id="A7dC1SOOh8DM9bIIvPGL-40" style="edgeStyle=orthogonalEdgeStyle;rounded=0;orthogonalLoop=1;jettySize=auto;html=1;entryX=0;entryY=0.5;entryDx=0;entryDy=0;" edge="1" parent="1" source="A7dC1SOOh8DM9bIIvPGL-32" target="A7dC1SOOh8DM9bIIvPGL-36">
          <mxGeometry relative="1" as="geometry">
            <Array as="points">
              <mxPoint x="200" y="470" />
              <mxPoint x="200" y="470" />
            </Array>
          </mxGeometry>
        </mxCell>
        <mxCell id="A7dC1SOOh8DM9bIIvPGL-32" value="Effect" style="swimlane;whiteSpace=wrap;html=1;" vertex="1" parent="1">
          <mxGeometry x="40" y="440" width="140" height="250" as="geometry" />
        </mxCell>
        <mxCell id="A7dC1SOOh8DM9bIIvPGL-33" value="effect()" style="rounded=0;whiteSpace=wrap;html=1;" vertex="1" parent="A7dC1SOOh8DM9bIIvPGL-32">
          <mxGeometry x="10" y="40" width="120" height="60" as="geometry" />
        </mxCell>
        <mxCell id="A7dC1SOOh8DM9bIIvPGL-34" value="computed" style="rounded=0;whiteSpace=wrap;html=1;" vertex="1" parent="A7dC1SOOh8DM9bIIvPGL-32">
          <mxGeometry x="10" y="110" width="120" height="60" as="geometry" />
        </mxCell>
        <mxCell id="A7dC1SOOh8DM9bIIvPGL-35" value="watch" style="rounded=0;whiteSpace=wrap;html=1;" vertex="1" parent="A7dC1SOOh8DM9bIIvPGL-32">
          <mxGeometry x="10" y="180" width="120" height="60" as="geometry" />
        </mxCell>
        <mxCell id="A7dC1SOOh8DM9bIIvPGL-39" style="edgeStyle=orthogonalEdgeStyle;rounded=0;orthogonalLoop=1;jettySize=auto;html=1;" edge="1" parent="1" source="A7dC1SOOh8DM9bIIvPGL-36" target="A7dC1SOOh8DM9bIIvPGL-37">
          <mxGeometry relative="1" as="geometry" />
        </mxCell>
        <mxCell id="A7dC1SOOh8DM9bIIvPGL-42" style="edgeStyle=orthogonalEdgeStyle;rounded=0;orthogonalLoop=1;jettySize=auto;html=1;entryX=0.5;entryY=0;entryDx=0;entryDy=0;entryPerimeter=0;" edge="1" parent="1" source="A7dC1SOOh8DM9bIIvPGL-36" target="A7dC1SOOh8DM9bIIvPGL-41">
          <mxGeometry relative="1" as="geometry" />
        </mxCell>
        <mxCell id="A7dC1SOOh8DM9bIIvPGL-43" value="push" style="edgeLabel;html=1;align=center;verticalAlign=middle;resizable=0;points=[];" vertex="1" connectable="0" parent="A7dC1SOOh8DM9bIIvPGL-42">
          <mxGeometry y="1" relative="1" as="geometry">
            <mxPoint as="offset" />
          </mxGeometry>
        </mxCell>
        <mxCell id="A7dC1SOOh8DM9bIIvPGL-36" value="执行 effect" style="rounded=0;whiteSpace=wrap;html=1;" vertex="1" parent="1">
          <mxGeometry x="240" y="440" width="120" height="60" as="geometry" />
        </mxCell>
        <mxCell id="A7dC1SOOh8DM9bIIvPGL-38" value="&lt;b&gt;依赖收集&lt;/b&gt;" style="edgeStyle=orthogonalEdgeStyle;rounded=0;orthogonalLoop=1;jettySize=auto;html=1;" edge="1" parent="1" source="A7dC1SOOh8DM9bIIvPGL-37" target="A7dC1SOOh8DM9bIIvPGL-5">
          <mxGeometry relative="1" as="geometry">
            <Array as="points">
              <mxPoint x="460" y="360" />
              <mxPoint x="300" y="360" />
            </Array>
          </mxGeometry>
        </mxCell>
        <mxCell id="A7dC1SOOh8DM9bIIvPGL-37" value="activeEffect" style="rounded=0;whiteSpace=wrap;html=1;" vertex="1" parent="1">
          <mxGeometry x="400" y="440" width="120" height="60" as="geometry" />
        </mxCell>
        <mxCell id="A7dC1SOOh8DM9bIIvPGL-41" value="effect&lt;br&gt;stack" style="shape=cylinder3;whiteSpace=wrap;html=1;boundedLbl=1;backgroundOutline=1;size=15;fillColor=#fff2cc;strokeColor=#d6b656;" vertex="1" parent="1">
          <mxGeometry x="300" y="560" width="60" height="80" as="geometry" />
        </mxCell>
        <mxCell id="A7dC1SOOh8DM9bIIvPGL-45" value="" style="endArrow=classic;html=1;rounded=0;entryX=0.5;entryY=1;entryDx=0;entryDy=0;" edge="1" parent="1" target="A7dC1SOOh8DM9bIIvPGL-37">
          <mxGeometry width="50" height="50" relative="1" as="geometry">
            <mxPoint x="460" y="650" as="sourcePoint" />
            <mxPoint x="550" y="400" as="targetPoint" />
          </mxGeometry>
        </mxCell>
        <mxCell id="A7dC1SOOh8DM9bIIvPGL-47" value="1、响应系统核心数据" style="text;html=1;strokeColor=none;fillColor=none;align=center;verticalAlign=middle;whiteSpace=wrap;rounded=0;fontStyle=1" vertex="1" parent="1">
          <mxGeometry x="720" y="280" width="120" height="30" as="geometry" />
        </mxCell>
        <mxCell id="A7dC1SOOh8DM9bIIvPGL-48" value="2、effect stack&lt;br&gt;用于支持嵌套" style="text;html=1;strokeColor=none;fillColor=none;align=center;verticalAlign=middle;whiteSpace=wrap;rounded=0;fontStyle=1" vertex="1" parent="1">
          <mxGeometry x="180" y="585" width="120" height="30" as="geometry" />
        </mxCell>
      </root>
    </mxGraphModel>
  </diagram>
</mxfile>
